<?xml version="1.0" encoding="utf-8"?>
<!-- Generator: Adobe Illustrator 26.0.2, SVG Export Plug-In . SVG Version: 6.00 Build 0)  -->
<svg version="1.1" id="Calque_1" xmlns="http://www.w3.org/2000/svg" xmlns:xlink="http://www.w3.org/1999/xlink" x="0px" y="0px"
	 viewBox="0 0 164.8 127.9" style="enable-background:new 0 0 164.8 127.9;" xml:space="preserve">
<style type="text/css">
	.st0{fill:#FFFFFF;}
</style>
<path id="Tracé_2964_00000083059806168146975530000008701646771962167979_" class="st0" d="M164.8,89.6c0-1-0.1-1.9-0.1-2.9
	c0-1.2-0.1-2.4-0.1-3.6c-0.2-2.3-0.3-4.6-0.6-6.9s-0.6-4.7-0.9-7c-0.7-4.4-1.6-8.8-2.8-13.2c-1.3-5.1-2.9-10.1-4.8-15
	c-2.3-6-5-11.9-8.1-17.6c-2.3-4.2-4.7-8.2-7.4-12.2c-0.2-0.3-0.4-0.6-0.7-0.7c-5.3-2.5-10.8-4.6-16.4-6.3c-5.4-1.7-10.9-3-16.4-4
	c-0.7-0.1-0.7-0.1-1.1,0.5l-0.1,0.2c-1.2,2.5-2.4,5-3.6,7.5c-0.3,0.7-0.3,0.7-1.1,0.6c-1.8-0.2-3.5-0.5-5.3-0.7c-3-0.3-6-0.5-9-0.6
	c-3.3-0.1-6.5-0.1-9.8,0.1c-1.9,0.1-3.7,0.2-5.6,0.4c-1.3,0.1-2.5,0.3-3.8,0.4c-1,0.1-1.9,0.3-2.9,0.4c-0.6,0.1-0.6,0-0.8-0.5
	c-0.5-1.1-1-2.2-1.5-3.3c-0.8-1.6-1.6-3.2-2.4-4.8c-0.1-0.3-0.4-0.4-0.7-0.3c0,0,0,0,0,0c-0.6,0.1-1.2,0.2-1.8,0.3
	c-4.7,0.9-9.4,2.1-14,3.5c-5.8,1.8-11.6,4-17.1,6.5c-0.4,0.1-0.7,0.4-0.9,0.7c-1,1.6-2,3.1-3,4.7c-2.8,4.5-5.4,9.2-7.6,14
	c-1.3,2.7-2.5,5.5-3.7,8.3c-2.2,5.2-4,10.6-5.5,16.1c-1.5,5.4-2.6,10.9-3.5,16.4c-0.6,3.8-1,7.7-1.2,11.5C0.1,83.9,0,85.6,0,87.4
	c0,4.1-0.1,8.3,0.2,12.4c0.1,2,0.3,4,0.4,6c0,0.4,0.2,0.8,0.5,1c1.8,1.3,3.6,2.6,5.4,3.8c2.5,1.6,5,3.2,7.6,4.8
	c5,3,10.2,5.7,15.6,7.9c3.7,1.6,7.5,3,11.4,4.2l1.2,0.4c3.4-4.6,6.3-9.5,8.9-14.7c-4.9-1.9-9.6-4.2-14-6.9c0.2-0.2,0.4-0.4,0.6-0.5
	c0.8-0.6,1.6-1.2,2.3-1.8c0.4-0.3,0.7-0.5,1.2-0.2c0.2,0.1,0.3,0.2,0.5,0.2c5.2,2.4,10.7,4.3,16.2,5.8c2.7,0.7,5.4,1.3,8.1,1.8
	c1.7,0.3,3.4,0.6,5.1,0.8c2.2,0.2,4.5,0.4,6.7,0.5c4.1,0.2,8.2,0.2,12.3-0.2c2.8-0.2,5.7-0.6,8.5-1.1c8.6-1.5,16.9-4.2,24.8-7.9
	c0.3-0.2,0.7-0.1,1,0.1c0.8,0.7,1.7,1.4,2.6,2c0.1,0.1,0.2,0.2,0.4,0.4c-4.5,2.7-9.1,5-14,6.9c0,0.1,0.1,0.2,0.1,0.3
	c2.1,4.1,4.4,8.1,7,11.9c0.4,0.6,0.9,1.3,1.3,1.9c0.4,0.6,0.4,0.5,1.1,0.3l0.3-0.1c2.2-0.8,4.4-1.5,6.6-2.3
	c5.7-2.1,11.3-4.7,16.7-7.6c4.4-2.4,8.7-5,12.9-7.9c1.5-1,2.8-2,4.2-3c0.3-0.2,0.5-0.5,0.5-0.8c0-0.4,0.1-0.9,0.1-1.3
	c0.1-2.2,0.3-4.4,0.4-6.6c0-0.4,0-0.9,0-1.4c0.1-1.3,0.2-2.7,0.2-4C164.8,91.6,164.8,90.6,164.8,89.6 M69.8,70.7
	c-0.1,4-1.5,7.9-4,11.1c-1.9,2.5-4.6,4.2-7.6,5c-3.4,0.9-7,0.4-10-1.5c-3.2-1.9-5.7-4.9-6.9-8.4c-0.8-2-1.2-4.1-1.2-6.2
	c-0.1-4.2,1.2-8.4,3.7-11.7c2-2.7,4.8-4.6,8.1-5.3c3-0.7,6.1-0.4,8.9,1c1.6,0.8,3.1,1.9,4.4,3.2c2.2,2.4,3.7,5.3,4.3,8.5
	C69.7,67.7,69.9,69.2,69.8,70.7 M124.6,69.8c0.1,3.9-1,7.7-3.1,10.9c-1.9,3-5,5.2-8.4,6.1c-3.5,0.9-7.2,0.4-10.2-1.5
	c-3.3-2-5.7-5.1-6.9-8.8c-1.7-4.9-1.3-10.3,1.1-15c1.5-3.1,4.1-5.6,7.3-7c4-1.8,8.6-1.5,12.4,0.8c2.9,1.7,5.1,4.3,6.4,7.3
	C124,64.8,124.6,67.3,124.6,69.8"/>
</svg>
